<svg xmlns="http://www.w3.org/2000/svg" width="1em" height="1em" viewBox="0 0 24 24"><path fill="currentColor" d="M18.92 8.776q-.493 2.895-2.649 5.48q-2.155 2.588-3.819 3.695q-1.047.495-1.786.034q-.74-.464-1.169-1.325q-.247-.49-1.202-3.728q-.955-3.233-1.139-3.479q-.124-.245-.616-.061q-.494.184-.678.309a2 2 0 0 0-.308.245L5 9.209l.616-.74a13.3 13.3 0 0 1 1.724-1.54q1.048-.8 1.848-.987q.556-.12.924.156q.37.277.616.894q.248.615.369 1.199q.124.588.248 1.387q.122.801.246 1.232q.677 2.896 1.109 2.896q.615 0 1.971-2.59q.616-1.169.062-1.941q-.553-.768-1.724-.029a3.6 3.6 0 0 1 1.046-2.031q1.54-1.664 3.388-1.234q1.91.371 1.477 2.895"/></svg>